<svg xmlns="http://www.w3.org/2000/svg" xmlns:xlink="http://www.w3.org/1999/xlink" width="500" zoomAndPan="magnify" viewBox="0 0 375 374.999991" height="500" preserveAspectRatio="xMidYMid meet" version="1.0"><defs><filter x="0%" y="0%" width="100%" height="100%" id="3937a88510"><feColorMatrix values="0 0 0 0 1 0 0 0 0 1 0 0 0 0 1 0 0 0 1 0" color-interpolation-filters="sRGB"/></filter><clipPath id="cabcdcf305"><path d="M 0 0 L 374.515625 0 L 374.515625 374.515625 L 0 374.515625 Z M 0 0 " clip-rule="nonzero"/></clipPath><clipPath id="464fbab143"><path d="M 374.992188 187.496094 C 374.992188 190.566406 374.917969 193.632812 374.765625 196.695312 C 374.617188 199.761719 374.390625 202.820312 374.089844 205.875 C 373.789062 208.929688 373.414062 211.972656 372.964844 215.007812 C 372.511719 218.042969 371.988281 221.066406 371.390625 224.074219 C 370.792969 227.085938 370.117188 230.078125 369.375 233.054688 C 368.628906 236.03125 367.808594 238.988281 366.917969 241.921875 C 366.027344 244.859375 365.066406 247.773438 364.03125 250.660156 C 363 253.550781 361.894531 256.414062 360.71875 259.246094 C 359.546875 262.082031 358.300781 264.886719 356.992188 267.660156 C 355.679688 270.433594 354.300781 273.175781 352.851562 275.882812 C 351.40625 278.585938 349.894531 281.257812 348.316406 283.886719 C 346.738281 286.519531 345.097656 289.113281 343.394531 291.664062 C 341.6875 294.214844 339.921875 296.722656 338.09375 299.1875 C 336.265625 301.652344 334.378906 304.070312 332.433594 306.441406 C 330.484375 308.816406 328.480469 311.136719 326.421875 313.410156 C 324.359375 315.683594 322.246094 317.90625 320.074219 320.074219 C 317.90625 322.246094 315.683594 324.359375 313.410156 326.421875 C 311.136719 328.480469 308.816406 330.484375 306.441406 332.433594 C 304.070312 334.378906 301.652344 336.265625 299.1875 338.09375 C 296.722656 339.921875 294.214844 341.6875 291.664062 343.394531 C 289.113281 345.097656 286.519531 346.738281 283.886719 348.316406 C 281.257812 349.894531 278.585938 351.40625 275.882812 352.851562 C 273.175781 354.300781 270.433594 355.679688 267.660156 356.992188 C 264.886719 358.300781 262.082031 359.546875 259.246094 360.71875 C 256.414062 361.894531 253.550781 363 250.660156 364.03125 C 247.773438 365.066406 244.859375 366.027344 241.921875 366.917969 C 238.988281 367.808594 236.03125 368.628906 233.054688 369.375 C 230.078125 370.117188 227.085938 370.792969 224.074219 371.390625 C 221.066406 371.988281 218.042969 372.511719 215.007812 372.964844 C 211.972656 373.414062 208.929688 373.789062 205.875 374.089844 C 202.820312 374.390625 199.761719 374.617188 196.695312 374.765625 C 193.632812 374.917969 190.566406 374.992188 187.496094 374.992188 C 184.425781 374.992188 181.359375 374.917969 178.296875 374.765625 C 175.230469 374.617188 172.171875 374.390625 169.117188 374.089844 C 166.066406 373.789062 163.019531 373.414062 159.984375 372.964844 C 156.949219 372.511719 153.925781 371.988281 150.917969 371.390625 C 147.90625 370.792969 144.914062 370.117188 141.9375 369.375 C 138.960938 368.628906 136.003906 367.808594 133.070312 366.917969 C 130.132812 366.027344 127.21875 365.066406 124.332031 364.03125 C 121.441406 363 118.578125 361.894531 115.746094 360.71875 C 112.910156 359.546875 110.105469 358.300781 107.332031 356.992188 C 104.558594 355.679688 101.816406 354.300781 99.109375 352.851562 C 96.40625 351.40625 93.734375 349.894531 91.105469 348.316406 C 88.472656 346.738281 85.878906 345.097656 83.328125 343.394531 C 80.777344 341.6875 78.269531 339.921875 75.804688 338.09375 C 73.339844 336.265625 70.921875 334.378906 68.550781 332.433594 C 66.179688 330.484375 63.855469 328.480469 61.582031 326.421875 C 59.308594 324.359375 57.085938 322.246094 54.917969 320.074219 C 52.746094 317.90625 50.632812 315.683594 48.570312 313.410156 C 46.511719 311.136719 44.507812 308.816406 42.558594 306.441406 C 40.613281 304.070312 38.726562 301.652344 36.898438 299.1875 C 35.070312 296.722656 33.304688 294.214844 31.597656 291.664062 C 29.894531 289.113281 28.253906 286.519531 26.675781 283.886719 C 25.097656 281.257812 23.585938 278.585938 22.140625 275.882812 C 20.691406 273.175781 19.3125 270.433594 18 267.660156 C 16.691406 264.886719 15.445312 262.082031 14.273438 259.246094 C 13.097656 256.414062 11.992188 253.550781 10.960938 250.660156 C 9.925781 247.773438 8.964844 244.859375 8.074219 241.921875 C 7.183594 238.988281 6.363281 236.03125 5.617188 233.054688 C 4.875 230.078125 4.203125 227.085938 3.601562 224.074219 C 3.003906 221.066406 2.480469 218.042969 2.03125 215.007812 C 1.578125 211.972656 1.203125 208.929688 0.902344 205.875 C 0.601562 202.820312 0.375 199.761719 0.226562 196.695312 C 0.0742188 193.632812 0 190.566406 0 187.496094 C 0 184.425781 0.0742188 181.359375 0.226562 178.296875 C 0.375 175.230469 0.601562 172.171875 0.902344 169.117188 C 1.203125 166.066406 1.578125 163.019531 2.03125 159.984375 C 2.480469 156.949219 3.003906 153.925781 3.601562 150.917969 C 4.203125 147.90625 4.875 144.914062 5.617188 141.9375 C 6.363281 138.960938 7.183594 136.003906 8.074219 133.070312 C 8.964844 130.132812 9.925781 127.21875 10.960938 124.332031 C 11.992188 121.441406 13.097656 118.578125 14.273438 115.746094 C 15.445312 112.910156 16.691406 110.105469 18 107.332031 C 19.3125 104.558594 20.691406 101.816406 22.140625 99.109375 C 23.585938 96.40625 25.097656 93.734375 26.675781 91.105469 C 28.253906 88.472656 29.894531 85.878906 31.597656 83.328125 C 33.304688 80.777344 35.070312 78.269531 36.898438 75.804688 C 38.726562 73.339844 40.613281 70.921875 42.558594 68.550781 C 44.507812 66.179688 46.511719 63.855469 48.570312 61.582031 C 50.632812 59.308594 52.746094 57.085938 54.917969 54.917969 C 57.085938 52.746094 59.308594 50.632812 61.582031 48.570312 C 63.855469 46.511719 66.179688 44.507812 68.550781 42.558594 C 70.921875 40.613281 73.339844 38.726562 75.804688 36.898438 C 78.269531 35.070312 80.777344 33.304688 83.328125 31.597656 C 85.878906 29.894531 88.472656 28.253906 91.105469 26.675781 C 93.734375 25.097656 96.40625 23.585938 99.109375 22.140625 C 101.816406 20.691406 104.558594 19.3125 107.332031 18 C 110.105469 16.691406 112.910156 15.445312 115.746094 14.273438 C 118.578125 13.097656 121.441406 11.992188 124.332031 10.960938 C 127.21875 9.925781 130.132812 8.964844 133.070312 8.074219 C 136.003906 7.183594 138.960938 6.363281 141.9375 5.617188 C 144.914062 4.875 147.90625 4.203125 150.917969 3.601562 C 153.925781 3.003906 156.949219 2.480469 159.984375 2.03125 C 163.019531 1.578125 166.066406 1.203125 169.117188 0.902344 C 172.171875 0.601562 175.230469 0.375 178.296875 0.226562 C 181.359375 0.0742188 184.425781 0 187.496094 0 C 190.566406 0 193.632812 0.0742188 196.695312 0.226562 C 199.761719 0.375 202.820312 0.601562 205.875 0.902344 C 208.929688 1.203125 211.972656 1.578125 215.007812 2.03125 C 218.042969 2.480469 221.066406 3.003906 224.074219 3.601562 C 227.085938 4.203125 230.078125 4.875 233.054688 5.617188 C 236.03125 6.363281 238.988281 7.183594 241.921875 8.074219 C 244.859375 8.964844 247.773438 9.925781 250.660156 10.960938 C 253.550781 11.992188 256.414062 13.097656 259.246094 14.273438 C 262.082031 15.445312 264.886719 16.691406 267.660156 18 C 270.433594 19.3125 273.175781 20.691406 275.882812 22.140625 C 278.585938 23.585938 281.257812 25.097656 283.886719 26.675781 C 286.519531 28.253906 289.113281 29.894531 291.664062 31.597656 C 294.214844 33.304688 296.722656 35.070312 299.1875 36.898438 C 301.652344 38.726562 304.070312 40.613281 306.441406 42.558594 C 308.816406 44.507812 311.136719 46.511719 313.410156 48.570312 C 315.683594 50.632812 317.90625 52.746094 320.074219 54.917969 C 322.246094 57.085938 324.359375 59.308594 326.421875 61.582031 C 328.480469 63.855469 330.484375 66.179688 332.433594 68.550781 C 334.378906 70.921875 336.265625 73.339844 338.09375 75.804688 C 339.921875 78.269531 341.6875 80.777344 343.394531 83.328125 C 345.097656 85.878906 346.738281 88.472656 348.316406 91.105469 C 349.894531 93.734375 351.40625 96.40625 352.851562 99.109375 C 354.300781 101.816406 355.679688 104.558594 356.992188 107.332031 C 358.300781 110.105469 359.546875 112.910156 360.71875 115.746094 C 361.894531 118.578125 363 121.441406 364.03125 124.332031 C 365.066406 127.21875 366.027344 130.132812 366.917969 133.070312 C 367.808594 136.003906 368.628906 138.960938 369.375 141.9375 C 370.117188 144.914062 370.792969 147.90625 371.390625 150.917969 C 371.988281 153.925781 372.511719 156.949219 372.964844 159.984375 C 373.414062 163.019531 373.789062 166.066406 374.089844 169.117188 C 374.390625 172.171875 374.617188 175.230469 374.765625 178.296875 C 374.917969 181.359375 374.992188 184.425781 374.992188 187.496094 Z M 374.992188 187.496094 " clip-rule="nonzero"/></clipPath><linearGradient x1="0.000000000000000013" gradientTransform="matrix(374.992421, 0, 0, 374.992421, 0.0000045, 0)" y1="0.000000000000000013" x2="1.003626" gradientUnits="userSpaceOnUse" y2="0.993786" id="93361a5ee9"><stop stop-opacity="1" stop-color="rgb(34.498596%, 5.499268%, 92.199707%)" offset="0"/><stop stop-opacity="1" stop-color="rgb(34.365845%, 5.857849%, 92.097473%)" offset="0.00390625"/><stop stop-opacity="1" stop-color="rgb(34.233093%, 6.217957%, 91.996765%)" offset="0.0078125"/><stop stop-opacity="1" stop-color="rgb(34.100342%, 6.578064%, 91.894531%)" offset="0.0117188"/><stop stop-opacity="1" stop-color="rgb(33.96759%, 6.938171%, 91.793823%)" offset="0.015625"/><stop stop-opacity="1" stop-color="rgb(33.833313%, 7.296753%, 91.691589%)" offset="0.0195312"/><stop stop-opacity="1" stop-color="rgb(33.700562%, 7.65686%, 91.590881%)" offset="0.0234375"/><stop stop-opacity="1" stop-color="rgb(33.56781%, 8.016968%, 91.488647%)" offset="0.0273437"/><stop stop-opacity="1" stop-color="rgb(33.435059%, 8.377075%, 91.387939%)" offset="0.03125"/><stop stop-opacity="1" stop-color="rgb(33.302307%, 8.735657%, 91.285706%)" offset="0.0351562"/><stop stop-opacity="1" stop-color="rgb(33.169556%, 9.095764%, 91.184998%)" offset="0.0390625"/><stop stop-opacity="1" stop-color="rgb(33.035278%, 9.455872%, 91.082764%)" offset="0.0429688"/><stop stop-opacity="1" stop-color="rgb(32.902527%, 9.815979%, 90.982056%)" offset="0.046875"/><stop stop-opacity="1" stop-color="rgb(32.769775%, 10.174561%, 90.879822%)" offset="0.0507812"/><stop stop-opacity="1" stop-color="rgb(32.637024%, 10.534668%, 90.779114%)" offset="0.0546875"/><stop stop-opacity="1" stop-color="rgb(32.504272%, 10.894775%, 90.678406%)" offset="0.0585937"/><stop stop-opacity="1" stop-color="rgb(32.371521%, 11.254883%, 90.577698%)" offset="0.0625"/><stop stop-opacity="1" stop-color="rgb(32.237244%, 11.613464%, 90.475464%)" offset="0.0664062"/><stop stop-opacity="1" stop-color="rgb(32.104492%, 11.973572%, 90.374756%)" offset="0.0703125"/><stop stop-opacity="1" stop-color="rgb(31.971741%, 12.333679%, 90.272522%)" offset="0.0742187"/><stop stop-opacity="1" stop-color="rgb(31.838989%, 12.693787%, 90.171814%)" offset="0.078125"/><stop stop-opacity="1" stop-color="rgb(31.706238%, 13.052368%, 90.06958%)" offset="0.0820312"/><stop stop-opacity="1" stop-color="rgb(31.573486%, 13.412476%, 89.968872%)" offset="0.0859375"/><stop stop-opacity="1" stop-color="rgb(31.439209%, 13.772583%, 89.866638%)" offset="0.0898437"/><stop stop-opacity="1" stop-color="rgb(31.306458%, 14.13269%, 89.76593%)" offset="0.09375"/><stop stop-opacity="1" stop-color="rgb(31.173706%, 14.491272%, 89.663696%)" offset="0.0976562"/><stop stop-opacity="1" stop-color="rgb(31.040955%, 14.851379%, 89.562988%)" offset="0.101562"/><stop stop-opacity="1" stop-color="rgb(30.908203%, 15.209961%, 89.460754%)" offset="0.105469"/><stop stop-opacity="1" stop-color="rgb(30.775452%, 15.570068%, 89.360046%)" offset="0.109375"/><stop stop-opacity="1" stop-color="rgb(30.641174%, 15.930176%, 89.257812%)" offset="0.113281"/><stop stop-opacity="1" stop-color="rgb(30.508423%, 16.290283%, 89.157104%)" offset="0.117188"/><stop stop-opacity="1" stop-color="rgb(30.375671%, 16.648865%, 89.054871%)" offset="0.121094"/><stop stop-opacity="1" stop-color="rgb(30.24292%, 17.008972%, 88.954163%)" offset="0.125"/><stop stop-opacity="1" stop-color="rgb(30.110168%, 17.36908%, 88.851929%)" offset="0.128906"/><stop stop-opacity="1" stop-color="rgb(29.977417%, 17.729187%, 88.751221%)" offset="0.132812"/><stop stop-opacity="1" stop-color="rgb(29.84314%, 18.087769%, 88.650513%)" offset="0.136719"/><stop stop-opacity="1" stop-color="rgb(29.710388%, 18.447876%, 88.549805%)" offset="0.140625"/><stop stop-opacity="1" stop-color="rgb(29.577637%, 18.807983%, 88.447571%)" offset="0.144531"/><stop stop-opacity="1" stop-color="rgb(29.444885%, 19.168091%, 88.346863%)" offset="0.148438"/><stop stop-opacity="1" stop-color="rgb(29.312134%, 19.526672%, 88.244629%)" offset="0.152344"/><stop stop-opacity="1" stop-color="rgb(29.179382%, 19.88678%, 88.143921%)" offset="0.15625"/><stop stop-opacity="1" stop-color="rgb(29.045105%, 20.246887%, 88.041687%)" offset="0.160156"/><stop stop-opacity="1" stop-color="rgb(28.912354%, 20.606995%, 87.940979%)" offset="0.164062"/><stop stop-opacity="1" stop-color="rgb(28.779602%, 20.965576%, 87.838745%)" offset="0.167969"/><stop stop-opacity="1" stop-color="rgb(28.646851%, 21.325684%, 87.738037%)" offset="0.171875"/><stop stop-opacity="1" stop-color="rgb(28.514099%, 21.685791%, 87.635803%)" offset="0.175781"/><stop stop-opacity="1" stop-color="rgb(28.381348%, 22.045898%, 87.535095%)" offset="0.179688"/><stop stop-opacity="1" stop-color="rgb(28.24707%, 22.40448%, 87.432861%)" offset="0.183594"/><stop stop-opacity="1" stop-color="rgb(28.114319%, 22.764587%, 87.332153%)" offset="0.1875"/><stop stop-opacity="1" stop-color="rgb(27.981567%, 23.123169%, 87.229919%)" offset="0.191406"/><stop stop-opacity="1" stop-color="rgb(27.848816%, 23.483276%, 87.129211%)" offset="0.195312"/><stop stop-opacity="1" stop-color="rgb(27.716064%, 23.843384%, 87.026978%)" offset="0.199219"/><stop stop-opacity="1" stop-color="rgb(27.583313%, 24.203491%, 86.92627%)" offset="0.203125"/><stop stop-opacity="1" stop-color="rgb(27.449036%, 24.562073%, 86.824036%)" offset="0.207031"/><stop stop-opacity="1" stop-color="rgb(27.316284%, 24.92218%, 86.723328%)" offset="0.210938"/><stop stop-opacity="1" stop-color="rgb(27.183533%, 25.282288%, 86.62262%)" offset="0.214844"/><stop stop-opacity="1" stop-color="rgb(27.050781%, 25.642395%, 86.521912%)" offset="0.21875"/><stop stop-opacity="1" stop-color="rgb(26.91803%, 26.000977%, 86.419678%)" offset="0.222656"/><stop stop-opacity="1" stop-color="rgb(26.785278%, 26.361084%, 86.31897%)" offset="0.226563"/><stop stop-opacity="1" stop-color="rgb(26.651001%, 26.721191%, 86.216736%)" offset="0.230469"/><stop stop-opacity="1" stop-color="rgb(26.51825%, 27.081299%, 86.116028%)" offset="0.234375"/><stop stop-opacity="1" stop-color="rgb(26.385498%, 27.43988%, 86.013794%)" offset="0.238281"/><stop stop-opacity="1" stop-color="rgb(26.252747%, 27.799988%, 85.913086%)" offset="0.242188"/><stop stop-opacity="1" stop-color="rgb(26.119995%, 28.160095%, 85.810852%)" offset="0.246094"/><stop stop-opacity="1" stop-color="rgb(25.987244%, 28.520203%, 85.710144%)" offset="0.25"/><stop stop-opacity="1" stop-color="rgb(25.852966%, 28.878784%, 85.60791%)" offset="0.253906"/><stop stop-opacity="1" stop-color="rgb(25.720215%, 29.238892%, 85.507202%)" offset="0.257812"/><stop stop-opacity="1" stop-color="rgb(25.587463%, 29.598999%, 85.404968%)" offset="0.261719"/><stop stop-opacity="1" stop-color="rgb(25.454712%, 29.959106%, 85.30426%)" offset="0.265625"/><stop stop-opacity="1" stop-color="rgb(25.32196%, 30.317688%, 85.202026%)" offset="0.269531"/><stop stop-opacity="1" stop-color="rgb(25.189209%, 30.677795%, 85.101318%)" offset="0.273438"/><stop stop-opacity="1" stop-color="rgb(25.054932%, 31.037903%, 84.999084%)" offset="0.277344"/><stop stop-opacity="1" stop-color="rgb(24.92218%, 31.39801%, 84.898376%)" offset="0.28125"/><stop stop-opacity="1" stop-color="rgb(24.789429%, 31.756592%, 84.796143%)" offset="0.285156"/><stop stop-opacity="1" stop-color="rgb(24.656677%, 32.116699%, 84.695435%)" offset="0.289062"/><stop stop-opacity="1" stop-color="rgb(24.523926%, 32.475281%, 84.594727%)" offset="0.292969"/><stop stop-opacity="1" stop-color="rgb(24.391174%, 32.835388%, 84.494019%)" offset="0.296875"/><stop stop-opacity="1" stop-color="rgb(24.256897%, 33.195496%, 84.391785%)" offset="0.300781"/><stop stop-opacity="1" stop-color="rgb(24.124146%, 33.555603%, 84.291077%)" offset="0.304688"/><stop stop-opacity="1" stop-color="rgb(23.991394%, 33.914185%, 84.188843%)" offset="0.308594"/><stop stop-opacity="1" stop-color="rgb(23.858643%, 34.274292%, 84.088135%)" offset="0.3125"/><stop stop-opacity="1" stop-color="rgb(23.725891%, 34.634399%, 83.985901%)" offset="0.316406"/><stop stop-opacity="1" stop-color="rgb(23.59314%, 34.994507%, 83.885193%)" offset="0.320312"/><stop stop-opacity="1" stop-color="rgb(23.458862%, 35.353088%, 83.782959%)" offset="0.324219"/><stop stop-opacity="1" stop-color="rgb(23.326111%, 35.713196%, 83.682251%)" offset="0.328125"/><stop stop-opacity="1" stop-color="rgb(23.193359%, 36.073303%, 83.580017%)" offset="0.332031"/><stop stop-opacity="1" stop-color="rgb(23.060608%, 36.433411%, 83.479309%)" offset="0.335938"/><stop stop-opacity="1" stop-color="rgb(22.927856%, 36.791992%, 83.377075%)" offset="0.339844"/><stop stop-opacity="1" stop-color="rgb(22.795105%, 37.1521%, 83.276367%)" offset="0.34375"/><stop stop-opacity="1" stop-color="rgb(22.660828%, 37.512207%, 83.174133%)" offset="0.347656"/><stop stop-opacity="1" stop-color="rgb(22.528076%, 37.872314%, 83.073425%)" offset="0.351562"/><stop stop-opacity="1" stop-color="rgb(22.395325%, 38.230896%, 82.971191%)" offset="0.355469"/><stop stop-opacity="1" stop-color="rgb(22.262573%, 38.591003%, 82.870483%)" offset="0.359375"/><stop stop-opacity="1" stop-color="rgb(22.129822%, 38.951111%, 82.76825%)" offset="0.363281"/><stop stop-opacity="1" stop-color="rgb(21.99707%, 39.311218%, 82.667542%)" offset="0.367188"/><stop stop-opacity="1" stop-color="rgb(21.862793%, 39.6698%, 82.566833%)" offset="0.371094"/><stop stop-opacity="1" stop-color="rgb(21.730042%, 40.029907%, 82.466125%)" offset="0.375"/><stop stop-opacity="1" stop-color="rgb(21.59729%, 40.390015%, 82.363892%)" offset="0.378906"/><stop stop-opacity="1" stop-color="rgb(21.464539%, 40.750122%, 82.263184%)" offset="0.382812"/><stop stop-opacity="1" stop-color="rgb(21.331787%, 41.108704%, 82.16095%)" offset="0.386719"/><stop stop-opacity="1" stop-color="rgb(21.199036%, 41.468811%, 82.060242%)" offset="0.390625"/><stop stop-opacity="1" stop-color="rgb(21.064758%, 41.827393%, 81.958008%)" offset="0.394531"/><stop stop-opacity="1" stop-color="rgb(20.932007%, 42.1875%, 81.8573%)" offset="0.398438"/><stop stop-opacity="1" stop-color="rgb(20.799255%, 42.547607%, 81.755066%)" offset="0.402344"/><stop stop-opacity="1" stop-color="rgb(20.666504%, 42.907715%, 81.654358%)" offset="0.40625"/><stop stop-opacity="1" stop-color="rgb(20.533752%, 43.266296%, 81.552124%)" offset="0.410156"/><stop stop-opacity="1" stop-color="rgb(20.401001%, 43.626404%, 81.451416%)" offset="0.414062"/><stop stop-opacity="1" stop-color="rgb(20.266724%, 43.986511%, 81.349182%)" offset="0.417969"/><stop stop-opacity="1" stop-color="rgb(20.133972%, 44.346619%, 81.248474%)" offset="0.421875"/><stop stop-opacity="1" stop-color="rgb(20.001221%, 44.7052%, 81.14624%)" offset="0.425781"/><stop stop-opacity="1" stop-color="rgb(19.868469%, 45.065308%, 81.045532%)" offset="0.429688"/><stop stop-opacity="1" stop-color="rgb(19.735718%, 45.425415%, 80.943298%)" offset="0.433594"/><stop stop-opacity="1" stop-color="rgb(19.602966%, 45.785522%, 80.84259%)" offset="0.4375"/><stop stop-opacity="1" stop-color="rgb(19.468689%, 46.144104%, 80.740356%)" offset="0.441406"/><stop stop-opacity="1" stop-color="rgb(19.335938%, 46.504211%, 80.639648%)" offset="0.445312"/><stop stop-opacity="1" stop-color="rgb(19.203186%, 46.864319%, 80.53894%)" offset="0.449219"/><stop stop-opacity="1" stop-color="rgb(19.070435%, 47.224426%, 80.438232%)" offset="0.453125"/><stop stop-opacity="1" stop-color="rgb(18.937683%, 47.583008%, 80.335999%)" offset="0.457031"/><stop stop-opacity="1" stop-color="rgb(18.804932%, 47.943115%, 80.235291%)" offset="0.460938"/><stop stop-opacity="1" stop-color="rgb(18.670654%, 48.303223%, 80.133057%)" offset="0.464844"/><stop stop-opacity="1" stop-color="rgb(18.537903%, 48.66333%, 80.032349%)" offset="0.46875"/><stop stop-opacity="1" stop-color="rgb(18.405151%, 49.021912%, 79.930115%)" offset="0.472656"/><stop stop-opacity="1" stop-color="rgb(18.2724%, 49.382019%, 79.829407%)" offset="0.476562"/><stop stop-opacity="1" stop-color="rgb(18.139648%, 49.742126%, 79.727173%)" offset="0.480469"/><stop stop-opacity="1" stop-color="rgb(18.006897%, 50.102234%, 79.626465%)" offset="0.484375"/><stop stop-opacity="1" stop-color="rgb(17.87262%, 50.460815%, 79.524231%)" offset="0.488281"/><stop stop-opacity="1" stop-color="rgb(17.739868%, 50.820923%, 79.423523%)" offset="0.492187"/><stop stop-opacity="1" stop-color="rgb(17.607117%, 51.179504%, 79.321289%)" offset="0.496094"/><stop stop-opacity="1" stop-color="rgb(17.474365%, 51.539612%, 79.220581%)" offset="0.5"/><stop stop-opacity="1" stop-color="rgb(17.341614%, 51.899719%, 79.118347%)" offset="0.503906"/><stop stop-opacity="1" stop-color="rgb(17.208862%, 52.259827%, 79.017639%)" offset="0.507812"/><stop stop-opacity="1" stop-color="rgb(17.074585%, 52.618408%, 78.915405%)" offset="0.511719"/><stop stop-opacity="1" stop-color="rgb(16.941833%, 52.978516%, 78.814697%)" offset="0.515625"/><stop stop-opacity="1" stop-color="rgb(16.809082%, 53.338623%, 78.713989%)" offset="0.519531"/><stop stop-opacity="1" stop-color="rgb(16.676331%, 53.69873%, 78.613281%)" offset="0.523438"/><stop stop-opacity="1" stop-color="rgb(16.543579%, 54.057312%, 78.511047%)" offset="0.527344"/><stop stop-opacity="1" stop-color="rgb(16.410828%, 54.417419%, 78.410339%)" offset="0.53125"/><stop stop-opacity="1" stop-color="rgb(16.27655%, 54.777527%, 78.308105%)" offset="0.535156"/><stop stop-opacity="1" stop-color="rgb(16.143799%, 55.137634%, 78.207397%)" offset="0.539062"/><stop stop-opacity="1" stop-color="rgb(16.011047%, 55.496216%, 78.105164%)" offset="0.542969"/><stop stop-opacity="1" stop-color="rgb(15.878296%, 55.856323%, 78.004456%)" offset="0.546875"/><stop stop-opacity="1" stop-color="rgb(15.745544%, 56.216431%, 77.902222%)" offset="0.550781"/><stop stop-opacity="1" stop-color="rgb(15.612793%, 56.576538%, 77.801514%)" offset="0.554688"/><stop stop-opacity="1" stop-color="rgb(15.478516%, 56.93512%, 77.69928%)" offset="0.558594"/><stop stop-opacity="1" stop-color="rgb(15.345764%, 57.295227%, 77.598572%)" offset="0.5625"/><stop stop-opacity="1" stop-color="rgb(15.213013%, 57.655334%, 77.496338%)" offset="0.566406"/><stop stop-opacity="1" stop-color="rgb(15.080261%, 58.015442%, 77.39563%)" offset="0.570312"/><stop stop-opacity="1" stop-color="rgb(14.94751%, 58.374023%, 77.293396%)" offset="0.574219"/><stop stop-opacity="1" stop-color="rgb(14.814758%, 58.734131%, 77.192688%)" offset="0.578125"/><stop stop-opacity="1" stop-color="rgb(14.680481%, 59.092712%, 77.090454%)" offset="0.582031"/><stop stop-opacity="1" stop-color="rgb(14.547729%, 59.45282%, 76.989746%)" offset="0.585938"/><stop stop-opacity="1" stop-color="rgb(14.414978%, 59.812927%, 76.887512%)" offset="0.589844"/><stop stop-opacity="1" stop-color="rgb(14.282227%, 60.173035%, 76.786804%)" offset="0.59375"/><stop stop-opacity="1" stop-color="rgb(14.149475%, 60.531616%, 76.686096%)" offset="0.597656"/><stop stop-opacity="1" stop-color="rgb(14.016724%, 60.891724%, 76.585388%)" offset="0.601562"/><stop stop-opacity="1" stop-color="rgb(13.882446%, 61.251831%, 76.483154%)" offset="0.605469"/><stop stop-opacity="1" stop-color="rgb(13.749695%, 61.611938%, 76.382446%)" offset="0.609375"/><stop stop-opacity="1" stop-color="rgb(13.616943%, 61.97052%, 76.280212%)" offset="0.613281"/><stop stop-opacity="1" stop-color="rgb(13.484192%, 62.330627%, 76.179504%)" offset="0.617188"/><stop stop-opacity="1" stop-color="rgb(13.35144%, 62.690735%, 76.077271%)" offset="0.621094"/><stop stop-opacity="1" stop-color="rgb(13.218689%, 63.050842%, 75.976562%)" offset="0.625"/><stop stop-opacity="1" stop-color="rgb(13.084412%, 63.409424%, 75.874329%)" offset="0.628906"/><stop stop-opacity="1" stop-color="rgb(12.95166%, 63.769531%, 75.773621%)" offset="0.632812"/><stop stop-opacity="1" stop-color="rgb(12.818909%, 64.129639%, 75.671387%)" offset="0.636719"/><stop stop-opacity="1" stop-color="rgb(12.686157%, 64.489746%, 75.570679%)" offset="0.640625"/><stop stop-opacity="1" stop-color="rgb(12.553406%, 64.848328%, 75.468445%)" offset="0.644531"/><stop stop-opacity="1" stop-color="rgb(12.420654%, 65.208435%, 75.367737%)" offset="0.648438"/><stop stop-opacity="1" stop-color="rgb(12.286377%, 65.568542%, 75.265503%)" offset="0.652344"/><stop stop-opacity="1" stop-color="rgb(12.153625%, 65.92865%, 75.164795%)" offset="0.65625"/><stop stop-opacity="1" stop-color="rgb(12.020874%, 66.287231%, 75.062561%)" offset="0.660156"/><stop stop-opacity="1" stop-color="rgb(11.888123%, 66.647339%, 74.961853%)" offset="0.664062"/><stop stop-opacity="1" stop-color="rgb(11.755371%, 67.007446%, 74.859619%)" offset="0.667969"/><stop stop-opacity="1" stop-color="rgb(11.62262%, 67.367554%, 74.758911%)" offset="0.671875"/><stop stop-opacity="1" stop-color="rgb(11.488342%, 67.726135%, 74.658203%)" offset="0.675781"/><stop stop-opacity="1" stop-color="rgb(11.355591%, 68.086243%, 74.557495%)" offset="0.679688"/><stop stop-opacity="1" stop-color="rgb(11.222839%, 68.444824%, 74.455261%)" offset="0.683594"/><stop stop-opacity="1" stop-color="rgb(11.090088%, 68.804932%, 74.354553%)" offset="0.6875"/><stop stop-opacity="1" stop-color="rgb(10.957336%, 69.165039%, 74.252319%)" offset="0.691406"/><stop stop-opacity="1" stop-color="rgb(10.824585%, 69.525146%, 74.151611%)" offset="0.695312"/><stop stop-opacity="1" stop-color="rgb(10.690308%, 69.883728%, 74.049377%)" offset="0.699219"/><stop stop-opacity="1" stop-color="rgb(10.557556%, 70.243835%, 73.948669%)" offset="0.703125"/><stop stop-opacity="1" stop-color="rgb(10.424805%, 70.603943%, 73.846436%)" offset="0.707031"/><stop stop-opacity="1" stop-color="rgb(10.292053%, 70.96405%, 73.745728%)" offset="0.710938"/><stop stop-opacity="1" stop-color="rgb(10.159302%, 71.322632%, 73.643494%)" offset="0.714844"/><stop stop-opacity="1" stop-color="rgb(10.02655%, 71.682739%, 73.542786%)" offset="0.71875"/><stop stop-opacity="1" stop-color="rgb(9.892273%, 72.042847%, 73.440552%)" offset="0.722656"/><stop stop-opacity="1" stop-color="rgb(9.759521%, 72.402954%, 73.339844%)" offset="0.726562"/><stop stop-opacity="1" stop-color="rgb(9.62677%, 72.761536%, 73.23761%)" offset="0.730469"/><stop stop-opacity="1" stop-color="rgb(9.494019%, 73.121643%, 73.136902%)" offset="0.734375"/><stop stop-opacity="1" stop-color="rgb(9.361267%, 73.48175%, 73.034668%)" offset="0.738281"/><stop stop-opacity="1" stop-color="rgb(9.228516%, 73.841858%, 72.93396%)" offset="0.742188"/><stop stop-opacity="1" stop-color="rgb(9.094238%, 74.200439%, 72.831726%)" offset="0.746094"/><stop stop-opacity="1" stop-color="rgb(8.961487%, 74.560547%, 72.731018%)" offset="0.75"/><stop stop-opacity="1" stop-color="rgb(8.828735%, 74.920654%, 72.63031%)" offset="0.753906"/><stop stop-opacity="1" stop-color="rgb(8.695984%, 75.280762%, 72.529602%)" offset="0.757812"/><stop stop-opacity="1" stop-color="rgb(8.563232%, 75.639343%, 72.427368%)" offset="0.761719"/><stop stop-opacity="1" stop-color="rgb(8.430481%, 75.999451%, 72.32666%)" offset="0.765625"/><stop stop-opacity="1" stop-color="rgb(8.296204%, 76.359558%, 72.224426%)" offset="0.769531"/><stop stop-opacity="1" stop-color="rgb(8.163452%, 76.719666%, 72.123718%)" offset="0.773438"/><stop stop-opacity="1" stop-color="rgb(8.030701%, 77.078247%, 72.021484%)" offset="0.777344"/><stop stop-opacity="1" stop-color="rgb(7.897949%, 77.438354%, 71.920776%)" offset="0.78125"/><stop stop-opacity="1" stop-color="rgb(7.765198%, 77.796936%, 71.818542%)" offset="0.785156"/><stop stop-opacity="1" stop-color="rgb(7.632446%, 78.157043%, 71.717834%)" offset="0.789062"/><stop stop-opacity="1" stop-color="rgb(7.498169%, 78.517151%, 71.615601%)" offset="0.792969"/><stop stop-opacity="1" stop-color="rgb(7.365417%, 78.877258%, 71.514893%)" offset="0.796875"/><stop stop-opacity="1" stop-color="rgb(7.232666%, 79.23584%, 71.412659%)" offset="0.800781"/><stop stop-opacity="1" stop-color="rgb(7.099915%, 79.595947%, 71.311951%)" offset="0.804688"/><stop stop-opacity="1" stop-color="rgb(6.967163%, 79.956055%, 71.209717%)" offset="0.808594"/><stop stop-opacity="1" stop-color="rgb(6.834412%, 80.316162%, 71.109009%)" offset="0.8125"/><stop stop-opacity="1" stop-color="rgb(6.700134%, 80.674744%, 71.006775%)" offset="0.816406"/><stop stop-opacity="1" stop-color="rgb(6.567383%, 81.034851%, 70.906067%)" offset="0.820312"/><stop stop-opacity="1" stop-color="rgb(6.434631%, 81.394958%, 70.803833%)" offset="0.824219"/><stop stop-opacity="1" stop-color="rgb(6.30188%, 81.755066%, 70.703125%)" offset="0.828125"/><stop stop-opacity="1" stop-color="rgb(6.169128%, 82.113647%, 70.602417%)" offset="0.832031"/><stop stop-opacity="1" stop-color="rgb(6.036377%, 82.473755%, 70.501709%)" offset="0.835938"/><stop stop-opacity="1" stop-color="rgb(5.9021%, 82.833862%, 70.399475%)" offset="0.839844"/><stop stop-opacity="1" stop-color="rgb(5.769348%, 83.19397%, 70.298767%)" offset="0.84375"/><stop stop-opacity="1" stop-color="rgb(5.636597%, 83.552551%, 70.196533%)" offset="0.847656"/><stop stop-opacity="1" stop-color="rgb(5.503845%, 83.912659%, 70.095825%)" offset="0.851562"/><stop stop-opacity="1" stop-color="rgb(5.371094%, 84.272766%, 69.993591%)" offset="0.855469"/><stop stop-opacity="1" stop-color="rgb(5.238342%, 84.632874%, 69.892883%)" offset="0.859375"/><stop stop-opacity="1" stop-color="rgb(5.104065%, 84.991455%, 69.790649%)" offset="0.863281"/><stop stop-opacity="1" stop-color="rgb(4.971313%, 85.351562%, 69.689941%)" offset="0.867188"/><stop stop-opacity="1" stop-color="rgb(4.838562%, 85.71167%, 69.587708%)" offset="0.871094"/><stop stop-opacity="1" stop-color="rgb(4.705811%, 86.071777%, 69.487%)" offset="0.875"/><stop stop-opacity="1" stop-color="rgb(4.573059%, 86.430359%, 69.384766%)" offset="0.878906"/><stop stop-opacity="1" stop-color="rgb(4.440308%, 86.790466%, 69.284058%)" offset="0.882812"/><stop stop-opacity="1" stop-color="rgb(4.30603%, 87.149048%, 69.181824%)" offset="0.886719"/><stop stop-opacity="1" stop-color="rgb(4.173279%, 87.509155%, 69.081116%)" offset="0.890625"/><stop stop-opacity="1" stop-color="rgb(4.040527%, 87.869263%, 68.978882%)" offset="0.894531"/><stop stop-opacity="1" stop-color="rgb(3.907776%, 88.22937%, 68.878174%)" offset="0.898438"/><stop stop-opacity="1" stop-color="rgb(3.775024%, 88.587952%, 68.77594%)" offset="0.902344"/><stop stop-opacity="1" stop-color="rgb(3.642273%, 88.948059%, 68.675232%)" offset="0.90625"/><stop stop-opacity="1" stop-color="rgb(3.507996%, 89.308167%, 68.574524%)" offset="0.910156"/><stop stop-opacity="1" stop-color="rgb(3.375244%, 89.668274%, 68.473816%)" offset="0.914062"/><stop stop-opacity="1" stop-color="rgb(3.242493%, 90.026855%, 68.371582%)" offset="0.917969"/><stop stop-opacity="1" stop-color="rgb(3.109741%, 90.386963%, 68.270874%)" offset="0.921875"/><stop stop-opacity="1" stop-color="rgb(2.97699%, 90.74707%, 68.16864%)" offset="0.925781"/><stop stop-opacity="1" stop-color="rgb(2.844238%, 91.107178%, 68.067932%)" offset="0.929688"/><stop stop-opacity="1" stop-color="rgb(2.709961%, 91.465759%, 67.965698%)" offset="0.933594"/><stop stop-opacity="1" stop-color="rgb(2.577209%, 91.825867%, 67.86499%)" offset="0.9375"/><stop stop-opacity="1" stop-color="rgb(2.444458%, 92.185974%, 67.762756%)" offset="0.941406"/><stop stop-opacity="1" stop-color="rgb(2.311707%, 92.546082%, 67.662048%)" offset="0.945313"/><stop stop-opacity="1" stop-color="rgb(2.178955%, 92.904663%, 67.559814%)" offset="0.949219"/><stop stop-opacity="1" stop-color="rgb(2.046204%, 93.264771%, 67.459106%)" offset="0.953125"/><stop stop-opacity="1" stop-color="rgb(1.911926%, 93.624878%, 67.356873%)" offset="0.957031"/><stop stop-opacity="1" stop-color="rgb(1.779175%, 93.984985%, 67.256165%)" offset="0.960938"/><stop stop-opacity="1" stop-color="rgb(1.646423%, 94.343567%, 67.153931%)" offset="0.964844"/><stop stop-opacity="1" stop-color="rgb(1.513672%, 94.703674%, 67.053223%)" offset="0.96875"/><stop stop-opacity="1" stop-color="rgb(1.38092%, 95.063782%, 66.950989%)" offset="0.972656"/><stop stop-opacity="1" stop-color="rgb(1.248169%, 95.423889%, 66.850281%)" offset="0.976562"/><stop stop-opacity="1" stop-color="rgb(1.113892%, 95.782471%, 66.749573%)" offset="0.980469"/><stop stop-opacity="1" stop-color="rgb(0.98114%, 96.142578%, 66.648865%)" offset="0.984375"/><stop stop-opacity="1" stop-color="rgb(0.848389%, 96.50116%, 66.546631%)" offset="0.988281"/><stop stop-opacity="1" stop-color="rgb(0.715637%, 96.861267%, 66.445923%)" offset="0.992188"/><stop stop-opacity="1" stop-color="rgb(0.582886%, 97.221375%, 66.343689%)" offset="0.996094"/><stop stop-opacity="1" stop-color="rgb(0.450134%, 97.581482%, 66.242981%)" offset="1"/></linearGradient><clipPath id="f9e655af2c"><path d="M 69.503906 82.378906 L 305.753906 82.378906 L 305.753906 292.5 L 69.503906 292.5 Z M 69.503906 82.378906 " clip-rule="nonzero"/></clipPath><mask id="4e2fb3efa3"><g filter="url(#3937a88510)"><rect x="-37.5" width="450" fill="#000000" y="-37.499999" height="449.999989" fill-opacity="0.06"/></g></mask><clipPath id="b0f5b8b55f"><path d="M 0.503906 0.378906 L 236.753906 0.378906 L 236.753906 210.5 L 0.503906 210.5 Z M 0.503906 0.378906 " clip-rule="nonzero"/></clipPath><clipPath id="b0d44c6e74"><rect x="0" width="237" y="0" height="212"/></clipPath></defs><g clip-path="url(#cabcdcf305)"><g clip-path="url(#464fbab143)"><path fill="url(#93361a5ee9)" d="M 0 0 L 0 374.515625 L 374.515625 374.515625 L 374.515625 0 Z M 0 0 " fill-rule="nonzero"/></g></g><g clip-path="url(#f9e655af2c)"><path fill="#ffffff" d="M 176.125 292.617188 L 175.832031 292.617188 L 175.832031 152.730469 C 185.570312 149.21875 217.847656 159.003906 226.128906 184.871094 C 236.894531 233.753906 181.304688 255.023438 176.125 292.617188 Z M 178.234375 292.617188 L 228.375 292.617188 L 228.375 236.554688 C 217.570312 253.835938 188.054688 267.535156 178.234375 292.617188 Z M 276.128906 98.855469 C 274.039062 96.28125 271.6875 93.96875 269.078125 91.917969 C 266.46875 89.871094 263.667969 88.132812 260.667969 86.707031 C 257.671875 85.28125 254.558594 84.203125 251.320312 83.472656 C 248.085938 82.742188 244.808594 82.378906 241.488281 82.378906 L 69.535156 82.378906 L 94.621094 116.648438 C 95.652344 118.058594 96.765625 119.40625 97.957031 120.683594 C 99.148438 121.964844 100.410156 123.171875 101.742188 124.304688 C 103.074219 125.433594 104.46875 126.484375 105.925781 127.453125 C 107.382812 128.421875 108.890625 129.300781 110.449219 130.09375 C 112.011719 130.882812 113.609375 131.582031 115.253906 132.183594 C 116.894531 132.789062 118.566406 133.292969 120.265625 133.699219 C 121.96875 134.105469 123.6875 134.410156 125.421875 134.617188 C 127.160156 134.820312 128.902344 134.921875 130.652344 134.921875 L 175.921875 134.921875 C 207.4375 134.957031 224.667969 150.921875 228.390625 172.65625 L 228.390625 134.921875 L 305.453125 134.921875 Z M 276.128906 98.855469 " fill-opacity="1" fill-rule="nonzero"/></g><g mask="url(#4e2fb3efa3)"><g transform="matrix(1, 0, 0, 1, 69, 82)"><g clip-path="url(#b0d44c6e74)"><g clip-path="url(#b0f5b8b55f)"><path fill="#00fca8" d="M 107.125 210.617188 L 106.832031 210.617188 L 106.832031 70.730469 C 116.570312 67.21875 148.847656 77.003906 157.128906 102.871094 C 167.894531 151.753906 112.304688 173.023438 107.125 210.617188 Z M 109.234375 210.617188 L 159.375 210.617188 L 159.375 154.554688 C 148.570312 171.835938 119.054688 185.535156 109.234375 210.617188 Z M 207.128906 16.855469 C 205.039062 14.28125 202.6875 11.96875 200.078125 9.917969 C 197.46875 7.871094 194.667969 6.132812 191.667969 4.707031 C 188.671875 3.28125 185.558594 2.203125 182.320312 1.472656 C 179.085938 0.742188 175.808594 0.378906 172.488281 0.378906 L 0.535156 0.378906 L 25.621094 34.648438 C 26.652344 36.058594 27.765625 37.40625 28.957031 38.683594 C 30.148438 39.964844 31.410156 41.171875 32.742188 42.304688 C 34.074219 43.433594 35.46875 44.484375 36.925781 45.453125 C 38.382812 46.421875 39.890625 47.300781 41.449219 48.09375 C 43.011719 48.882812 44.609375 49.582031 46.253906 50.183594 C 47.894531 50.789062 49.566406 51.292969 51.265625 51.699219 C 52.96875 52.105469 54.6875 52.410156 56.421875 52.617188 C 58.160156 52.820312 59.902344 52.921875 61.652344 52.921875 L 106.921875 52.921875 C 138.4375 52.957031 155.667969 68.921875 159.390625 90.65625 L 159.390625 52.921875 L 236.453125 52.921875 Z M 207.128906 16.855469 " fill-opacity="1" fill-rule="nonzero"/></g></g></g></g></svg>